<?xml version="1.0" standalone="no"?><svg xmlns="http://www.w3.org/2000/svg" viewBox="0 0 1440 320"><path fill="#ffffff" fill-opacity="1" d="M0,288L30,277.3C60,267,120,245,180,245.3C240,245,300,267,360,282.7C420,299,480,309,540,293.3C600,277,660,235,720,192C780,149,840,107,900,122.7C960,139,1020,213,1080,245.3C1140,277,1200,267,1260,250.7C1320,235,1380,213,1410,202.7L1440,192L1440,320L1410,320C1380,320,1320,320,1260,320C1200,320,1140,320,1080,320C1020,320,960,320,900,320C840,320,780,320,720,320C660,320,600,320,540,320C480,320,420,320,360,320C300,320,240,320,180,320C120,320,60,320,30,320L0,320Z"></path></svg>