<?xml version="1.0" standalone="no"?><svg xmlns="http://www.w3.org/2000/svg" viewBox="0 0 1440 320"><path fill="#ffffff" fill-opacity="1" d="M0,288L30,277.3C60,267,120,245,180,245.3C240,245,300,267,360,282.7C420,299,480,309,540,293.3C600,277,660,235,720,192C780,149,840,107,900,122.7C960,139,1020,213,1080,245.3C1140,277,1200,267,1260,250.7C1320,235,1380,213,1410,202.7L1440,192L1440,0L1410,0C1380,0,1320,0,1260,0C1200,0,1140,0,1080,0C1020,0,960,0,900,0C840,0,780,0,720,0C660,0,600,0,540,0C480,0,420,0,360,0C300,0,240,0,180,0C120,0,60,0,30,0L0,0Z"></path></svg>